<svg viewBox="0 0 16 16" xmlns="http://www.w3.org/2000/svg">
<path fill-rule="evenodd" clip-rule="evenodd" d="M2.28571 0H13.7143C14.9767 0 16 1.02335 16 2.28571V13.7143C16 14.9767 14.9767 16 13.7143 16H2.28571C1.02335 16 0 14.9767 0 13.7143V2.28571C0 1.02335 1.02335 0 2.28571 0ZM13.0342 2.33595C9.66139 2.0333 7.97545 3.09812 7.97634 5.53042C7.97723 7.96272 7.97679 8.6131 7.975 7.48158H5.71429V9.7717H7.975V16H10.2286V9.7717H13.0342V7.48158H10.2286V5.53042C10.3209 4.91406 10.6111 4.58581 11.0991 4.54565C11.5871 4.50549 12.2321 4.50549 13.0342 4.54565V2.33595Z" fill="white"/>
</svg>
